<mxfile host="app.diagrams.net" agent="Mozilla/5.0 (X11; Linux x86_64) AppleWebKit/537.36 (KHTML, like Gecko) Chrome/137.0.0.0 Safari/537.36" version="27.1.4">
  <diagram name="Page-1" id="NnfqQz-Q8zLbPFn4j1au">
    <mxGraphModel dx="1296" dy="684" grid="1" gridSize="10" guides="1" tooltips="1" connect="1" arrows="1" fold="1" page="1" pageScale="1" pageWidth="850" pageHeight="1100" math="0" shadow="0">
      <root>
        <mxCell id="0" />
        <mxCell id="1" parent="0" />
        <mxCell id="xlE3c0ZEI31vzKAxUSUF-8" style="edgeStyle=orthogonalEdgeStyle;rounded=0;orthogonalLoop=1;jettySize=auto;html=1;entryX=0;entryY=0.5;entryDx=0;entryDy=0;" edge="1" parent="1" source="xlE3c0ZEI31vzKAxUSUF-1" target="xlE3c0ZEI31vzKAxUSUF-2">
          <mxGeometry relative="1" as="geometry" />
        </mxCell>
        <mxCell id="xlE3c0ZEI31vzKAxUSUF-1" value="Controller" style="rounded=1;whiteSpace=wrap;html=1;fontSize=15;" vertex="1" parent="1">
          <mxGeometry x="360" y="360" width="120" height="60" as="geometry" />
        </mxCell>
        <mxCell id="xlE3c0ZEI31vzKAxUSUF-2" value="Plant&#39;s Soil&lt;div&gt;(Plant)&lt;/div&gt;" style="rounded=1;whiteSpace=wrap;html=1;fontSize=15;" vertex="1" parent="1">
          <mxGeometry x="640" y="360" width="120" height="60" as="geometry" />
        </mxCell>
        <mxCell id="xlE3c0ZEI31vzKAxUSUF-5" style="edgeStyle=orthogonalEdgeStyle;rounded=0;orthogonalLoop=1;jettySize=auto;html=1;entryX=0;entryY=0.5;entryDx=0;entryDy=0;" edge="1" parent="1" source="xlE3c0ZEI31vzKAxUSUF-3" target="xlE3c0ZEI31vzKAxUSUF-1">
          <mxGeometry relative="1" as="geometry" />
        </mxCell>
        <mxCell id="xlE3c0ZEI31vzKAxUSUF-3" value="" style="ellipse;whiteSpace=wrap;html=1;aspect=fixed;" vertex="1" parent="1">
          <mxGeometry x="200" y="370" width="40" height="40" as="geometry" />
        </mxCell>
        <mxCell id="xlE3c0ZEI31vzKAxUSUF-4" value="" style="endArrow=classic;html=1;rounded=0;entryX=0;entryY=0.5;entryDx=0;entryDy=0;" edge="1" parent="1" target="xlE3c0ZEI31vzKAxUSUF-3">
          <mxGeometry width="50" height="50" relative="1" as="geometry">
            <mxPoint x="100" y="390" as="sourcePoint" />
            <mxPoint x="150" y="370" as="targetPoint" />
          </mxGeometry>
        </mxCell>
        <mxCell id="xlE3c0ZEI31vzKAxUSUF-6" value="Control Error&lt;div&gt;(Differences)&lt;/div&gt;" style="text;html=1;align=center;verticalAlign=middle;whiteSpace=wrap;rounded=0;fontSize=15;" vertex="1" parent="1">
          <mxGeometry x="240" y="350" width="120" height="30" as="geometry" />
        </mxCell>
        <mxCell id="xlE3c0ZEI31vzKAxUSUF-9" value="Pump activation&lt;div&gt;signal&lt;/div&gt;" style="text;html=1;align=center;verticalAlign=middle;whiteSpace=wrap;rounded=0;fontSize=15;" vertex="1" parent="1">
          <mxGeometry x="500" y="350" width="120" height="30" as="geometry" />
        </mxCell>
        <mxCell id="xlE3c0ZEI31vzKAxUSUF-10" value="(Control input)" style="text;html=1;align=center;verticalAlign=middle;whiteSpace=wrap;rounded=0;fontSize=15;" vertex="1" parent="1">
          <mxGeometry x="500" y="390" width="120" height="30" as="geometry" />
        </mxCell>
        <mxCell id="xlE3c0ZEI31vzKAxUSUF-11" value="" style="endArrow=classic;html=1;rounded=0;entryX=0.5;entryY=0;entryDx=0;entryDy=0;" edge="1" parent="1" target="xlE3c0ZEI31vzKAxUSUF-2">
          <mxGeometry width="50" height="50" relative="1" as="geometry">
            <mxPoint x="700" y="320" as="sourcePoint" />
            <mxPoint x="725" y="240" as="targetPoint" />
          </mxGeometry>
        </mxCell>
        <mxCell id="xlE3c0ZEI31vzKAxUSUF-12" value="Disturbances" style="text;html=1;align=center;verticalAlign=middle;whiteSpace=wrap;rounded=0;fontSize=15;" vertex="1" parent="1">
          <mxGeometry x="640" y="290" width="120" height="30" as="geometry" />
        </mxCell>
        <mxCell id="xlE3c0ZEI31vzKAxUSUF-13" value="" style="endArrow=classic;html=1;rounded=0;entryX=0;entryY=0.5;entryDx=0;entryDy=0;" edge="1" parent="1">
          <mxGeometry width="50" height="50" relative="1" as="geometry">
            <mxPoint x="760" y="389.09" as="sourcePoint" />
            <mxPoint x="860" y="389.09" as="targetPoint" />
          </mxGeometry>
        </mxCell>
        <mxCell id="xlE3c0ZEI31vzKAxUSUF-16" style="edgeStyle=orthogonalEdgeStyle;rounded=0;orthogonalLoop=1;jettySize=auto;html=1;entryX=0.5;entryY=1;entryDx=0;entryDy=0;" edge="1" parent="1" source="xlE3c0ZEI31vzKAxUSUF-14" target="xlE3c0ZEI31vzKAxUSUF-3">
          <mxGeometry relative="1" as="geometry" />
        </mxCell>
        <mxCell id="xlE3c0ZEI31vzKAxUSUF-14" value="Soil Moisture Sensor&lt;div&gt;(Sensing Element)&lt;/div&gt;" style="rounded=1;whiteSpace=wrap;html=1;fontSize=15;" vertex="1" parent="1">
          <mxGeometry x="465" y="480" width="190" height="60" as="geometry" />
        </mxCell>
        <mxCell id="xlE3c0ZEI31vzKAxUSUF-15" value="" style="endArrow=classic;html=1;rounded=0;entryX=1;entryY=0.5;entryDx=0;entryDy=0;" edge="1" parent="1" target="xlE3c0ZEI31vzKAxUSUF-14">
          <mxGeometry width="50" height="50" relative="1" as="geometry">
            <mxPoint x="800" y="390" as="sourcePoint" />
            <mxPoint x="890" y="440" as="targetPoint" />
            <Array as="points">
              <mxPoint x="800" y="510" />
            </Array>
          </mxGeometry>
        </mxCell>
        <mxCell id="xlE3c0ZEI31vzKAxUSUF-17" value="" style="endArrow=classic;html=1;rounded=0;" edge="1" parent="1">
          <mxGeometry width="50" height="50" relative="1" as="geometry">
            <mxPoint x="560" y="580" as="sourcePoint" />
            <mxPoint x="560" y="540" as="targetPoint" />
          </mxGeometry>
        </mxCell>
        <mxCell id="xlE3c0ZEI31vzKAxUSUF-18" value="Noise" style="text;html=1;align=center;verticalAlign=middle;whiteSpace=wrap;rounded=0;fontSize=15;" vertex="1" parent="1">
          <mxGeometry x="500" y="580" width="120" height="30" as="geometry" />
        </mxCell>
        <mxCell id="xlE3c0ZEI31vzKAxUSUF-19" value="&lt;div&gt;Desired Moisture&lt;/div&gt;&lt;div&gt;(Input)&lt;/div&gt;" style="text;html=1;align=center;verticalAlign=middle;whiteSpace=wrap;rounded=0;fontSize=15;" vertex="1" parent="1">
          <mxGeometry x="80" y="350" width="120" height="30" as="geometry" />
        </mxCell>
        <mxCell id="xlE3c0ZEI31vzKAxUSUF-20" value="&lt;div&gt;Actual Soil Moisture&lt;/div&gt;&lt;div&gt;(Output)&lt;/div&gt;" style="text;html=1;align=center;verticalAlign=middle;whiteSpace=wrap;rounded=0;fontSize=15;" vertex="1" parent="1">
          <mxGeometry x="760" y="350" width="150" height="30" as="geometry" />
        </mxCell>
        <mxCell id="xlE3c0ZEI31vzKAxUSUF-21" value="Feedback Signal" style="text;html=1;align=center;verticalAlign=middle;whiteSpace=wrap;rounded=0;fontSize=15;" vertex="1" parent="1">
          <mxGeometry x="280" y="480" width="120" height="30" as="geometry" />
        </mxCell>
      </root>
    </mxGraphModel>
  </diagram>
</mxfile>
